<?xml version="1.0" standalone="no"?><!DOCTYPE svg PUBLIC "-//W3C//DTD SVG 1.1//EN" "http://www.w3.org/Graphics/SVG/1.1/DTD/svg11.dtd"><svg class="icon" height="512" viewBox="0 0 1024 1024" version="1.1" xmlns="http://www.w3.org/2000/svg"><path d="M512 61.44C263.159808 61.44 61.44 263.161856 61.44 512s201.719808 450.56 450.56 450.56c248.836096 0 450.56-201.721856 450.56-450.56S760.836096 61.44 512 61.44zM427.882496 364.765184c2.041856-58.185728 17.291264-103.077888 84.484096-103.077888 67.270656 0 82.479104 44.93312 84.52096 103.159808 8.030208 0.772096 14.270464 1.544192 12.312576 25.92768-2.033664 24.915968-8.56064 23.771136-16.87552 22.792192-14.311424 49.504256-43.384832 85.710848-79.958016 85.710848-36.53632 0-65.64864-36.247552-79.962112-85.788672-8.636416 0.937984-15.529984 2.971648-17.6128-22.714368C412.760064 365.621248 419.485696 365.580288 427.882496 364.765184zM557.135872 613.361664l-44.122112 59.205632-1.9968 0-44.15488-59.205632 33.024-97.286144c4.073472 0.862208 8.27392 1.31072 12.515328 1.31072 4.036608 0 7.993344-0.372736 11.831296-1.144832L557.135872 613.361664zM706.695168 762.310656 317.304832 762.310656 317.304832 583.43424c0-51.249152 46.68416-79.673344 89.092096-94.881792 13.330432 53.98528 46.893056 166.846464 100.7104 197.38624l9.740288 0c53.8624-30.539776 87.420928-143.40096 100.714496-197.38624 42.40384 15.208448 89.133056 43.630592 89.133056 94.881792L706.695168 762.310656z" /></svg>